<svg xmlns="http://www.w3.org/2000/svg" viewBox="0 0 48 48">
  <path fill="#FFC107" d="M43.6 20.5H42V20H24v8h11.3C33.7 32.6 29.2 36 24 36c-6.6 0-12-5.4-12-12s5.4-12 12-12c3.1 0 5.8 1.1 7.9 3l5.7-5.7C34 6.5 29.3 4 24 4 12.9 4 4 12.9 4 24s8.9 20 20 20 20-8.9 20-20c0-1.2-.1-2.5-.4-3.5z"/>
  <path fill="#FF3D00" d="M6.3 14.7l6.6 4.8C14.7 16 19 12 24 12c3.1 0 5.8 1.1 7.9 3l5.7-5.7C34 6.5 29.3 4 24 4 16.3 4 9.7 8.3 6.3 14.7z"/>
  <path fill="#4CAF50" d="M24 44c5.2 0 9.9-2 13.4-5.2l-6.2-5.2C29.2 35.3 26.7 36 24 36c-5.1 0-9.6-3.3-11.2-8H6.4C9.8 35.6 16.3 44 24 44z"/>
  <path fill="#1976D2" d="M43.6 20.5H42V20H24v8h11.3c-.8 2.2-2.3 4.1-4.2 5.4l6.2 5.2C37 39.2 44 34 44 24c0-1.2-.1-2.5-.4-3.5z"/>
</svg>
